<?xml version="1.0" encoding="UTF-8" standalone="no"?>
<svg
   xmlns:dc="http://purl.org/dc/elements/1.1/"
   xmlns:cc="http://creativecommons.org/ns#"
   xmlns:rdf="http://www.w3.org/1999/02/22-rdf-syntax-ns#"
   xmlns:svg="http://www.w3.org/2000/svg"
   xmlns="http://www.w3.org/2000/svg"
   xmlns:sodipodi="http://sodipodi.sourceforge.net/DTD/sodipodi-0.dtd"
   xmlns:inkscape="http://www.inkscape.org/namespaces/inkscape"
   version="1.1"
   id="Layer_1"
   x="0px"
   y="0px"
   viewBox="0 0 62.860001 44"
   xml:space="preserve"
   sodipodi:docname="icon.svg"
   width="62.860001"
   height="44"
   inkscape:version="1.0.2 (1.0.2+r75+1)"
   inkscape:export-filename="/home/dev/Development/youtube-ends-at/icons/icon-128.png"
   inkscape:export-xdpi="195.48"
   inkscape:export-ydpi="195.48"><metadata
   id="metadata11"><rdf:RDF><cc:Work
       rdf:about=""><dc:format>image/svg+xml</dc:format><dc:type
         rdf:resource="http://purl.org/dc/dcmitype/StillImage" /><dc:title></dc:title></cc:Work></rdf:RDF></metadata><defs
   id="defs9" /><sodipodi:namedview
   pagecolor="#ffffff"
   bordercolor="#666666"
   borderopacity="1"
   objecttolerance="10"
   gridtolerance="10"
   guidetolerance="10"
   inkscape:pageopacity="0"
   inkscape:pageshadow="2"
   inkscape:window-width="1920"
   inkscape:window-height="1016"
   id="namedview7"
   showgrid="false"
   showguides="true"
   inkscape:pagecheckerboard="true"
   inkscape:zoom="13.014994"
   inkscape:cx="33.206906"
   inkscape:cy="26.601906"
   inkscape:window-x="1680"
   inkscape:window-y="27"
   inkscape:window-maximized="1"
   inkscape:current-layer="Layer_1"><inkscape:grid
     type="xygrid"
     id="grid73" /></sodipodi:namedview>
	 <path
   fill="#ff0000"
   d="M 61.55,6.8700004 C 60.83,4.17 58.7,2.04 55.99,1.31 51.09,0 31.43,0 31.43,0 31.43,0 11.78,0 6.87,1.31 4.17,2.03 2.04,4.16 1.31,6.8700004 0,11.77 0,22 0,22 c 0,0 0,10.23 1.31,15.13 0.72,2.7 2.85,4.83 5.56,5.56 C 11.78,44 31.43,44 31.43,44 c 0,0 19.66,0 24.56,-1.31 2.7,-0.72 4.83,-2.85 5.56,-5.56 1.31,-4.9 1.31,-15.13 1.31,-15.13 0,0 0,-10.23 -1.31,-15.1299996 z"
   class="style-scope yt-icon"
   id="path2-8"
   style="fill:#ffffff" /><path
   id="path2"
   style="fill:#ff0000;fill-opacity:1"
   d="m 30.929688,0.00390625 c -0.718557,0.00202013 -5.910408,0.0203755 -11.695313,0.2265625 l 0.609375,1.05468745 -0.433594,0.25 L 18.667969,0.25 C 13.832038,0.43286021 8.9839661,0.74630598 6.8691406,1.3105469 4.8548599,1.8476884 3.1597791,3.1700208 2.125,4.9316406 l 1.484375,0.8574219 -0.25,0.4335937 -1.4609375,-0.84375 C 1.6591882,5.8528194 1.4514852,6.3459314 1.3105469,6.8691406 0.09826079,11.403645 0.01267418,20.167709 0.00585938,21.5 H 3 v 1 H 0.00585938 c 0.0068148,1.332291 0.09240141,10.096355 1.30468752,14.630859 0.1417349,0.531506 0.3511079,1.032762 0.5957031,1.513672 L 3.2382812,37.875 l 0.25,0.433594 -1.3515624,0.779297 c 1.0326016,1.744632 2.7209362,3.059723 4.7324218,3.601562 2.0906344,0.557786 6.8521374,0.868701 11.6328124,1.052735 l 0.759766,-1.316407 0.433593,0.25 -0.628906,1.087891 c 5.846835,0.212194 11.142595,0.230456 11.863282,0.232422 V 41 h 1 v 2.996094 c 0.770447,-0.0011 6.208082,-0.02019 11.833984,-0.222656 l -0.59375,-1.029297 0.433594,-0.25 0.724609,1.255859 c 4.758566,-0.181873 9.545933,-0.494793 11.662109,-1.060547 1.982344,-0.528625 3.651916,-1.821164 4.691407,-3.541015 l -1.185547,-0.683594 0.25,-0.433594 1.173828,0.677734 c 0.260101,-0.49943 0.481252,-1.022735 0.630859,-1.578125 C 62.763066,32.596361 62.84695,23.832308 62.853516,22.5 h -2.994141 v -1 h 2.994141 C 62.84695,20.167692 62.763066,11.40364 61.550781,6.8691406 61.400552,6.3057804 61.175654,5.7756244 60.910156,5.2695312 l -1.560547,0.9003907 -0.25,-0.4335938 1.570313,-0.90625 C 59.63257,3.127707 57.969031,1.8435807 55.990234,1.3105469 53.884855,0.74767985 49.057451,0.43515597 44.232422,0.25195312 l -0.830078,1.43749998 -0.431641,-0.25 0.697266,-1.20898435 C 37.867755,0.02283441 32.64861,0.00574992 31.929688,0.00390625 V 3 h -1 z M 55,8 55.25,8.4335938 31.929688,21.898438 V 23.5 h -1 v -1.025391 l -1.720704,0.994141 -0.25,-0.433594 1.970704,-1.138672 V 9 h 1 v 12.320312 z" />
</svg>
