<?xml version="1.0" encoding="UTF-8" standalone="no"?>
<svg
   xmlns:dc="http://purl.org/dc/elements/1.1/"
   xmlns:cc="http://creativecommons.org/ns#"
   xmlns:rdf="http://www.w3.org/1999/02/22-rdf-syntax-ns#"
   xmlns:svg="http://www.w3.org/2000/svg"
   xmlns="http://www.w3.org/2000/svg"
   xmlns:sodipodi="http://sodipodi.sourceforge.net/DTD/sodipodi-0.dtd"
   xmlns:inkscape="http://www.inkscape.org/namespaces/inkscape"
   version="1.1"
   id="Layer_1"
   x="0px"
   y="0px"
   viewBox="0 0 62.860001 44"
   xml:space="preserve"
   sodipodi:docname="icon-thick.svg"
   width="62.860001"
   height="44"
   inkscape:version="1.0.2 (1.0.2+r75+1)"
   inkscape:export-filename="/home/dev/Development/youtube-ends-at/icons/icon-16.png"
   inkscape:export-xdpi="24.440001"
   inkscape:export-ydpi="24.440001"><metadata
   id="metadata11"><rdf:RDF><cc:Work
       rdf:about=""><dc:format>image/svg+xml</dc:format><dc:type
         rdf:resource="http://purl.org/dc/dcmitype/StillImage" /><dc:title></dc:title></cc:Work></rdf:RDF></metadata><defs
   id="defs9" /><sodipodi:namedview
   pagecolor="#ffffff"
   bordercolor="#666666"
   borderopacity="1"
   objecttolerance="10"
   gridtolerance="10"
   guidetolerance="10"
   inkscape:pageopacity="0"
   inkscape:pageshadow="2"
   inkscape:window-width="1920"
   inkscape:window-height="1016"
   id="namedview7"
   showgrid="false"
   showguides="true"
   inkscape:pagecheckerboard="true"
   inkscape:zoom="13.014994"
   inkscape:cx="29.979859"
   inkscape:cy="26.601906"
   inkscape:window-x="1680"
   inkscape:window-y="27"
   inkscape:window-maximized="1"
   inkscape:current-layer="Layer_1"><inkscape:grid
     type="xygrid"
     id="grid73" /></sodipodi:namedview>
	 <path
   fill="#ff0000"
   d="M 61.55,6.8700004 C 60.83,4.17 58.7,2.04 55.99,1.31 51.09,0 31.43,0 31.43,0 31.43,0 11.78,0 6.87,1.31 4.17,2.03 2.04,4.16 1.31,6.8700004 0,11.77 0,22 0,22 c 0,0 0,10.23 1.31,15.13 0.72,2.7 2.85,4.83 5.56,5.56 C 11.78,44 31.43,44 31.43,44 c 0,0 19.66,0 24.56,-1.31 2.7,-0.72 4.83,-2.85 5.56,-5.56 1.31,-4.9 1.31,-15.13 1.31,-15.13 0,0 0,-10.23 -1.31,-15.1299996 z"
   class="style-scope yt-icon"
   id="path2-8"
   style="fill:#ffffff" /><path
   id="path2"
   style="fill:#ff0000;fill-opacity:1"
   d="M 29.929688 0.00390625 C 29.252662 0.0058096157 25.343368 0.034633626 20.072266 0.20898438 L 21.076172 1.9472656 L 19.703125 2.7402344 L 18.275391 0.26757812 C 13.573163 0.45247351 8.9260874 0.76174797 6.8691406 1.3105469 C 5.0373108 1.7990348 3.4750231 2.9416481 2.4277344 4.46875 L 4.515625 5.6738281 L 3.7226562 7.046875 L 1.6777344 5.8652344 C 1.535213 6.1899297 1.4043249 6.5210057 1.3105469 6.8691406 C 0.098260565 11.403645 0.012674175 19.167709 0.005859375 20.5 L 4 20.5 L 4 23.5 L 0.005859375 23.5 C 0.012674175 24.832291 0.098260565 32.596355 1.3105469 37.130859 C 1.4267763 37.56672 1.5958328 37.978269 1.7851562 38.378906 L 3.609375 37.326172 L 4.4023438 38.699219 L 2.5800781 39.751953 C 3.6216572 41.163528 5.122463 42.218946 6.8691406 42.689453 C 8.8721379 43.223857 13.333933 43.528128 17.908203 43.714844 L 19.458984 41.027344 L 20.832031 41.820312 L 19.701172 43.78125 C 25.163922 43.968584 29.240106 43.994213 29.929688 43.996094 L 29.929688 40 L 32.929688 40 L 32.929688 43.996094 C 33.676848 43.995027 37.942144 43.970901 43.326172 43.785156 L 42.246094 41.914062 L 43.619141 41.121094 L 45.117188 43.712891 C 49.604995 43.526995 53.99228 43.223601 55.990234 42.689453 C 57.826902 42.199675 59.388232 41.049212 60.435547 39.515625 L 58.212891 38.232422 L 59.005859 36.859375 L 61.193359 38.121094 C 61.33252 37.800857 61.458455 37.473605 61.550781 37.130859 C 62.763066 32.596361 62.84695 24.832308 62.853516 23.5 L 58.859375 23.5 L 58.859375 20.5 L 62.853516 20.5 C 62.84695 19.167692 62.763066 11.40364 61.550781 6.8691406 C 61.407881 6.3332643 61.194013 5.8293603 60.945312 5.3457031 L 58.8125 6.578125 L 58.019531 5.2050781 L 60.085938 4.0117188 C 59.055324 2.7218366 57.635111 1.7536317 55.990234 1.3105469 C 53.961318 0.76812162 49.398452 0.46114595 44.751953 0.27539062 L 43.138672 3.0703125 L 41.765625 2.2773438 L 42.957031 0.2109375 C 37.591531 0.030761137 33.613482 0.0056598373 32.929688 0.00390625 L 32.929688 4 L 29.929688 4 L 29.929688 0.00390625 z M 52.564453 8.5195312 L 53.492188 10.097656 L 32.929688 22.191406 L 32.929688 24.5 L 29.929688 24.5 L 29.929688 23.957031 L 28.763672 24.642578 L 27.833984 23.0625 L 29.929688 21.830078 L 29.929688 9 L 32.929688 9 L 32.929688 20.066406 L 52.564453 8.5195312 z " />
</svg>
